<svg width="895" height="1301" viewBox="0 0 895 1301" fill="none" xmlns="http://www.w3.org/2000/svg">
<path d="M-10.1929 761.583C4.1649 736.056 24.5894 708.357 50.488 679.244C77.3504 649.325 106.201 621.268 136.84 595.267C168.845 567.915 202.504 542.581 237.622 519.41C270.67 497.342 305.365 477.88 341.394 461.202C374.34 446.122 403.714 436.577 428.413 432.711C452.224 428.958 470.763 430.705 483.525 437.837C496.286 444.969 502.571 457.121 502.231 474.086C501.916 491.5 494.439 513.397 480.081 538.924C465.723 564.452 445.248 592.277 419.4 621.264C392.537 651.188 363.678 679.242 333.024 705.23C301.048 732.608 267.41 757.962 232.307 781.143C199.253 803.202 164.558 822.663 128.534 839.351C95.4381 854.371 66.1392 863.946 41.4651 867.822C17.6289 871.565 -0.910481 869.818 -13.6465 862.696C-26.3824 855.574 -32.6933 843.412 -32.3534 826.447C-32.0632 809.023 -24.5608 787.136 -10.203 761.609L-10.1929 761.583ZM-12.9279 762.832C-72.4289 868.384 -9.53124 903.625 127.358 841.426C264.248 779.228 423.38 643.283 482.781 537.691C542.182 432.099 479.409 396.909 342.645 459.157C205.881 521.405 46.6232 657.3 -12.8026 762.882L-12.9279 762.832Z" stroke="#58479A" stroke-opacity="0.06" stroke-width="2.50278"/>
<path d="M-25.7231 751.854C-7.21046 724.942 17.6646 696.064 48.1187 666.312C79.4471 635.865 112.661 607.44 147.559 581.208C183.468 554.003 220.953 528.969 259.813 506.239C295.71 484.931 333.191 466.453 371.916 450.97C407.107 437.254 437.624 429.216 462.613 427.102C486.693 425.007 504.75 428.549 516.085 437.509C527.419 446.47 531.577 460.463 528.376 479.066C525.1 498.223 513.984 521.739 495.482 548.625C476.979 575.512 452.094 604.415 421.64 634.168C390.31 664.619 357.088 693.041 322.174 719.261C286.274 746.469 248.798 771.506 209.945 794.24C173.993 815.525 136.463 833.983 97.6924 849.449C62.5008 863.165 31.9842 871.203 7.02055 873.327C-17.0601 875.422 -35.1164 871.88 -46.4513 862.92C-57.7862 853.959 -61.9435 839.966 -58.7429 821.363C-55.4666 802.206 -44.3761 778.68 -25.8484 751.804L-25.7231 751.854ZM-28.7388 752.932C-105.295 864.169 -49.3829 908.406 96.1756 851.651C241.734 794.895 421.805 658.76 498.372 547.497C574.939 436.235 519.016 392.023 373.433 448.768C227.849 505.514 47.8277 641.67 -28.7388 752.932Z" stroke="#58479A" stroke-opacity="0.06" stroke-width="2.50278"/>
<path d="M-39.3644 739.751C-12.8399 707.943 16.3905 678.511 47.9937 651.791C83.849 621.165 121.491 592.718 160.718 566.602C200.428 539.889 241.644 515.516 284.157 493.606C322.803 473.446 362.949 456.351 404.227 442.478C441.274 430.378 472.717 424.171 497.704 423.957C521.868 423.765 539 429.19 548.673 440.061C558.346 450.931 560.029 466.686 553.711 486.911C547.163 507.863 532.264 532.707 509.431 560.761C482.915 592.577 453.684 622.01 422.073 648.722C386.323 679.368 348.779 707.836 309.645 733.97C269.929 760.674 228.714 785.047 186.206 806.966C147.56 827.126 107.414 844.221 66.1354 858.094C29.0891 870.194 -2.35411 876.401 -27.3663 876.605C-51.5056 876.807 -68.6374 871.382 -78.3103 860.512C-87.9832 849.641 -89.6659 833.886 -83.3487 813.661C-76.8002 792.71 -61.9012 767.866 -39.0685 739.811L-39.3644 739.751ZM-42.1042 740.793C-136.553 856.827 -88.9106 910.367 64.2273 860.403C217.365 810.439 417.872 675.812 512.311 559.804C606.75 443.796 559.118 390.231 405.98 440.195C252.842 490.159 52.0139 624.716 -42.35 740.754L-42.1042 740.793Z" stroke="#58479A" stroke-opacity="0.06" stroke-width="2.50278"/>
<path d="M-50.7126 725.262C-19.4519 692.783 14.3724 662.896 50.4268 635.895C131.023 575.021 218.108 523.365 310.059 481.89C351.133 463.154 393.628 447.762 437.133 435.862C475.713 425.747 507.796 421.579 532.476 423.522C556.337 425.402 572.339 432.861 579.988 445.673C587.638 458.486 586.64 476.007 576.956 497.755C566.96 520.285 548.042 546.392 520.759 575.333C489.498 607.813 455.674 637.7 419.619 664.7C379.429 695.166 337.534 723.288 294.144 748.929C250.782 774.744 205.989 798.041 159.988 818.706C118.904 837.439 76.4007 852.828 32.8882 864.724C-5.66645 874.849 -37.7501 879.017 -62.4545 877.064C-86.2912 875.194 -102.318 867.725 -109.942 854.923C-117.567 842.12 -116.594 824.588 -106.935 802.83C-96.9138 780.31 -77.9956 754.203 -50.7126 725.262V725.262ZM-53.9338 726.054C-166.801 845.797 -128.969 908.933 30.5838 867.079C190.136 825.226 410.972 694.199 523.829 574.482C636.687 454.764 598.864 391.603 439.312 433.457C279.76 475.31 58.9338 606.311 -53.9338 726.054V726.054Z" stroke="#58479A" stroke-opacity="0.06" stroke-width="2.50278"/>
<path d="M-59.5435 708.232C-23.5514 675.434 14.8666 645.43 55.3764 618.481C99.8515 588.569 145.952 561.18 193.461 536.442C240.227 511.895 288.358 490.083 337.612 471.116C386.237 452.493 431.004 439.173 470.766 431.341C510.528 423.51 542.865 421.693 566.876 425.971C590.073 430.101 604.563 439.676 609.949 454.451C615.334 469.226 611.351 488.481 598.118 511.621C584.384 535.584 561.306 562.723 529.402 592.395C493.425 625.21 455.006 655.215 414.483 682.146C370.022 712.07 323.929 739.463 276.423 764.194C229.657 788.741 181.526 810.553 132.272 829.521C83.6475 848.144 38.8798 861.464 -0.881986 869.295C-40.6438 877.127 -72.9813 878.943 -96.9916 874.665C-120.189 870.536 -134.679 860.961 -140.065 846.186C-145.45 831.411 -141.467 812.156 -128.234 789.016C-114.525 765.042 -91.4221 737.914 -59.5435 708.232V708.232ZM-62.7245 708.922C-194.401 831.166 -167.823 904.024 -3.39215 871.657C161.038 839.29 401.048 713.887 532.724 591.643C664.4 469.399 637.822 396.542 473.392 428.909C308.961 461.276 68.8766 586.648 -62.7997 708.892L-62.7245 708.922Z" stroke="#58479A" stroke-opacity="0.06" stroke-width="2.50278"/>
<path d="M-65.2441 688.808C-24.5741 656.026 18.4134 626.261 63.3752 599.752C111.927 570.818 162.035 544.616 213.466 521.27C263.333 498.376 314.489 478.45 366.667 461.597C417.753 445.329 464.224 434.442 504.746 429.222C545.269 424.003 577.479 424.913 600.418 431.659C622.566 438.205 635.227 450.033 638.023 466.787C640.819 483.54 633.608 504.403 616.633 528.771C599.054 553.921 571.622 581.925 535.208 611.759C494.531 644.532 451.545 674.296 406.589 700.814C358.027 729.731 307.92 755.931 256.498 779.296C206.601 802.189 155.411 822.101 103.196 838.929C52.1356 855.207 5.66438 866.095 -34.8829 871.304C-75.4301 876.513 -107.585 875.683 -130.55 868.928C-152.697 862.381 -165.359 850.553 -168.154 833.8C-170.95 817.046 -163.764 796.173 -146.764 771.816C-129.186 746.666 -101.753 718.661 -65.3394 688.828L-65.2441 688.808ZM-68.6757 689.252C-219.24 812.738 -205.592 895.147 -37.8395 873.692C129.913 852.237 387.865 734.745 538.519 611.324C689.174 487.903 675.355 405.339 507.728 426.844C340.101 448.349 82.0239 565.791 -68.6556 689.202L-68.6757 689.252Z" stroke="#58479A" stroke-opacity="0.06" stroke-width="2.50278"/>
<path d="M-67.6657 666.793C-22.4472 634.45 24.9856 605.36 74.2757 579.743C126.674 552.219 180.553 527.657 235.66 506.172C288.308 485.403 342.159 467.883 396.911 453.712C450.077 440.172 497.719 432.178 538.585 429.961C579.451 427.743 611.037 431.386 632.525 440.827C653.26 449.968 663.708 464.071 663.622 482.804C663.537 501.537 652.894 523.868 631.965 549.261C610.272 575.694 578.545 603.975 537.541 633.733C492.33 666.078 444.906 695.171 395.625 720.793C343.24 748.329 289.369 772.895 234.266 794.374C181.612 815.149 127.752 832.665 72.9893 846.824C19.849 860.374 -27.8189 868.358 -68.6596 870.585C-109.5 872.813 -141.111 869.16 -162.599 859.719C-183.334 850.578 -193.807 836.465 -193.697 817.742C-193.586 799.019 -182.968 776.678 -162.039 751.285C-140.397 724.978 -108.619 696.571 -67.6155 666.813L-67.6657 666.793ZM-70.9717 666.995C-240.528 790.016 -241.024 882.251 -72.0126 873.02C96.9993 863.789 371.341 756.571 540.822 633.521C710.303 510.47 710.875 418.265 541.863 427.496C372.851 436.727 98.5343 543.955 -71.072 666.955L-70.9717 666.995Z" stroke="#58479A" stroke-opacity="0.06" stroke-width="2.50278"/>
<path d="M-66.2596 642.387C-16.6468 610.901 35.0848 582.932 88.5562 558.686C144.466 533.037 201.775 510.61 260.204 491.514C315.201 473.278 371.294 458.607 428.135 447.592C482.848 437.242 531.201 432.571 571.863 433.634C612.526 434.697 643.04 441.538 662.644 453.736C681.552 465.569 689.485 481.973 686.177 502.666C682.869 523.36 668.513 546.988 643.55 573.17C617.718 600.293 581.566 628.886 536.093 658.12C486.526 689.611 434.845 717.6 381.428 741.881C325.515 767.521 268.206 789.948 209.78 809.053C154.783 827.289 98.6903 841.96 41.8487 852.975C-12.8641 863.325 -61.2165 867.996 -101.879 866.933C-142.542 865.87 -173.056 859.029 -192.66 846.831C-211.568 834.998 -219.526 818.585 -216.218 797.891C-212.91 777.197 -198.554 753.569 -173.591 727.387C-147.759 700.264 -111.607 671.671 -66.1342 642.437L-66.2596 642.387ZM-69.4651 642.338C-257.555 763.233 -273.741 864.943 -105.573 869.349C62.5949 873.755 351.479 779.261 539.625 658.299C727.77 537.338 743.901 435.694 575.708 431.278C407.515 426.862 118.555 521.326 -69.5904 642.288L-69.4651 642.338Z" stroke="#58479A" stroke-opacity="0.06" stroke-width="2.50278"/>
<path d="M-60.74 615.728C-6.99592 585.551 48.7692 559.18 106.147 536.807C165.182 513.521 225.517 493.74 286.837 477.566C343.721 462.272 401.562 450.896 459.958 443.518C515.641 436.857 564.126 435.864 604.043 440.547C643.96 445.23 672.897 455.301 690.041 470.611C706.638 485.323 711.564 504.095 704.899 526.579C698.234 549.062 680.004 573.953 650.952 600.698C620.87 628.349 580.36 656.724 530.518 685.036C476.774 715.212 421.009 741.583 363.631 763.956C304.593 787.234 244.259 807.015 182.941 823.197C126.143 838.418 68.3945 849.733 10.0962 857.063C-45.6119 863.714 -94.0717 864.717 -133.989 860.034C-173.906 855.351 -203.093 845.18 -220.287 829.996C-236.885 815.284 -241.811 796.512 -235.171 774.018C-228.531 751.525 -210.251 726.655 -181.198 699.909C-151.042 672.289 -110.531 643.913 -60.74 615.728ZM-64.0104 615.331C-270.117 732.437 -303.346 843.081 -138.265 862.452C26.8159 881.822 327.712 802.61 533.763 685.423C739.814 568.236 773.098 457.672 608.018 438.302C442.937 418.931 142.016 498.133 -64.0104 615.331V615.331Z" stroke="#58479A" stroke-opacity="0.06" stroke-width="2.50278"/>
<path d="M-50.6379 586.551C6.93519 558.165 66.4238 533.91 127.38 513.967C189.085 493.522 251.979 476.939 315.698 464.313C373.851 452.441 432.784 444.915 492.01 441.797C548.056 439.257 596.025 442.326 634.58 450.939C673.134 459.552 699.971 473.141 714.308 491.484C728.2 509.122 729.928 530.303 719.449 554.482C708.97 578.661 686.856 604.547 653.626 631.498C619.26 659.399 574.481 687.185 520.522 714.089C462.958 742.478 403.477 766.737 342.529 786.683C280.821 807.12 217.928 823.703 154.211 836.336C96.0151 848.198 37.0407 855.707 -22.226 858.803C-78.2719 861.343 -126.242 858.274 -164.796 849.661C-203.351 841.048 -230.213 827.448 -244.525 809.116C-258.391 791.488 -260.119 770.307 -249.64 746.128C-239.161 721.948 -216.998 696.083 -183.752 669.021C-149.386 641.119 -104.582 613.344 -50.6478 586.43L-50.6379 586.551ZM-53.7976 585.73C-276.945 697.039 -328.656 816.073 -169.067 851.7C-9.47737 887.328 300.63 825.906 523.777 714.597C746.924 603.288 798.636 484.254 639.046 448.626C479.457 412.999 169.31 474.522 -53.8378 585.831L-53.7976 585.73Z" stroke="#58479A" stroke-opacity="0.06" stroke-width="2.50278"/>
<path d="M-35.8751 555.487C25.1134 529.366 87.9059 507.758 151.999 490.836C215.79 473.708 280.62 460.826 346.067 452.273C405.014 444.227 464.496 441.008 523.923 442.65C579.629 444.681 626.401 452.213 662.961 465.029C699.52 477.846 723.635 495.057 734.724 516.519C745.417 537.151 743.517 560.657 729.079 586.386C714.64 612.115 688.393 638.75 651.028 665.574C612.374 693.374 563.472 720.13 505.737 745.062C444.743 771.166 381.951 792.774 317.863 809.713C254.07 826.833 189.241 839.715 123.796 848.276C64.8591 856.291 5.39067 859.475 -54.0204 857.798C-109.701 855.777 -156.474 848.245 -193.033 835.428C-229.593 822.612 -253.708 805.4 -264.797 783.939C-275.49 763.307 -273.59 739.801 -259.151 714.072C-244.713 688.343 -218.465 661.708 -181.101 634.884C-142.447 607.084 -93.5695 580.318 -35.8098 555.396L-35.8751 555.487ZM-38.7686 554.217C-277.852 657.83 -348.998 784.583 -197.78 837.57C-46.5626 890.558 269.688 849.738 508.731 746.226C747.774 642.713 818.835 516.102 667.668 462.988C516.5 409.875 200.184 450.786 -38.8338 554.308L-38.7686 554.217Z" stroke="#58479A" stroke-opacity="0.06" stroke-width="2.50278"/>
<path d="M-15.923 522.31C48.0334 498.976 113.65 480.574 180.356 467.265C245.66 453.969 311.806 445.368 378.291 441.527C442.991 437.905 502.52 439.53 555.237 446.362C609.76 453.475 654.652 465.725 688.499 483.015C722.346 500.304 743.233 521.461 750.572 545.989C757.621 569.641 751.745 595.392 733.127 622.495C714.509 649.599 684.082 676.732 642.715 703.1C599.883 730.375 547.134 755.628 485.875 778.248C421.921 801.591 356.303 819.993 289.596 833.294C224.302 846.6 158.163 855.204 91.6862 859.042C26.986 862.664 -32.5429 861.039 -85.2602 854.207C-139.808 847.083 -184.676 834.844 -218.548 817.544C-252.42 800.244 -273.256 779.107 -280.62 754.57C-287.644 730.928 -281.769 705.177 -263.151 678.073C-244.532 650.97 -214.106 623.837 -172.738 597.469C-129.906 570.194 -77.1572 544.941 -15.923 522.31V522.31ZM-18.6709 520.894C-271.958 614.286 -363.722 747.935 -223.636 819.375C-83.5494 890.815 235.286 873.037 488.547 779.635C741.809 686.233 833.599 552.594 693.462 481.28C553.325 409.966 234.566 427.482 -18.6709 520.894Z" stroke="#58479A" stroke-opacity="0.06" stroke-width="2.50278"/>
<path d="M9.38317 487.579C139.942 448.412 275.682 429.829 411.748 432.494C476.138 434.098 534.574 441.017 585.381 453.081C637.993 465.571 680.112 483.03 710.559 504.986C741.006 526.943 757.976 552.093 760.999 579.724C763.871 606.418 753.771 634.314 730.747 662.556C707.724 690.798 673.153 718.121 627.869 743.6C580.999 769.997 524.67 793.297 460.423 812.914C394.098 832.97 326.283 847.59 257.648 856.63C191.486 865.647 124.743 869.445 58.0335 867.989C-6.38144 866.375 -64.7924 859.466 -115.624 847.393C-168.212 834.912 -210.331 817.453 -240.803 795.487C-271.275 773.52 -288.195 748.39 -291.217 720.759C-294.115 694.055 -283.989 666.169 -260.966 637.927C-237.942 609.685 -203.291 582.307 -157.962 556.933C-111.092 530.536 -54.7632 507.237 9.45839 487.609L9.38317 487.579ZM6.97169 485.828C-258.716 567.029 -371.895 706.291 -245.961 797.202C-120.027 888.113 197.443 895.924 463.065 814.815C728.688 733.706 841.907 594.342 715.998 503.441C590.089 412.541 272.519 404.689 6.94661 485.818L6.97169 485.828Z" stroke="#58479A" stroke-opacity="0.06" stroke-width="2.50278"/>
<path d="M40.2429 451.498C108.41 435.189 177.844 424.909 247.748 420.776C313.986 416.53 380.442 418.112 446.356 425.503C509.577 432.809 566.012 445.479 614.076 463.114C663.819 481.418 702.332 504.134 728.681 531.122C755.031 558.111 767.383 587.121 765.652 617.856C763.967 647.528 749.2 677.365 721.731 706.553C694.262 735.742 655.498 762.797 606.507 787.004C555.841 812.063 496.289 832.879 429.617 848.958C361.448 865.254 292.014 875.534 222.111 879.681C155.874 883.921 89.4187 882.34 23.5038 874.953C-39.7176 867.647 -96.1525 854.978 -144.216 837.343C-193.984 819.028 -232.422 796.196 -258.821 769.334C-285.221 742.472 -297.523 713.335 -295.817 682.59C-294.133 652.918 -279.34 623.092 -251.771 593.943C-224.202 564.794 -185.563 537.689 -136.547 513.492C-85.8808 488.433 -26.3285 467.617 40.3432 451.538L40.2429 451.498ZM38.2983 449.378C-237.415 515.855 -372.796 659.716 -264.105 770.707C-155.414 881.698 156.279 917.785 431.993 851.308C707.706 784.832 843.087 640.971 734.396 529.98C625.705 418.989 314.012 382.902 38.2732 449.368L38.2983 449.378Z" stroke="#58479A" stroke-opacity="0.06" stroke-width="2.50278"/>
<path d="M76.8124 414.359C146.093 402.331 216.334 396.985 286.573 398.392C352.226 399.355 417.599 406.805 481.745 420.634C542.835 434.165 596.32 452.996 640.691 476.614C686.562 501.209 720.766 529.779 742.135 561.535C763.504 593.291 770.791 626.626 763.796 660.291C757.148 692.721 737.432 724.473 705.383 754.292C673.333 784.111 630.632 810.62 578.111 833.04C523.849 856.257 461.616 874.104 393.151 886.078C323.87 898.105 253.63 903.452 183.39 902.045C117.751 901.034 52.3956 893.541 -11.7313 879.677C-72.8207 866.146 -126.306 847.315 -170.702 823.687C-216.763 799.278 -250.892 770.885 -272.236 738.993C-293.58 707.1 -300.867 673.911 -293.897 640.236C-287.224 607.817 -267.534 576.054 -235.459 546.246C-203.385 516.437 -160.583 489.968 -108.188 467.498C-53.9007 444.291 8.33293 426.443 76.7972 414.47L76.8124 414.359ZM74.9433 411.831C-208.15 461.247 -366.088 608.045 -277.815 739.868C-189.543 871.69 111.681 938.274 394.865 888.778C678.049 839.281 835.986 692.483 747.714 560.66C659.442 428.837 358.368 362.313 75.0587 411.76L74.9433 411.831Z" stroke="#58479A" stroke-opacity="0.06" stroke-width="2.50278"/>
<path d="M119.155 376.606C188.88 369.318 259.148 369.484 328.777 377.1C393.009 383.813 456.26 397.735 517.347 418.606C575.296 438.777 624.807 464.152 664.528 494.043C705.638 525.043 734.395 559.334 750.106 596.319C765.818 633.304 767.327 670.417 754.686 707.094C742.537 742.388 717.759 775.543 681.064 805.645C644.37 835.746 597.656 861.24 542.152 881.448C484.672 902.389 420.264 916.651 350.86 923.982C281.135 931.27 210.867 931.105 141.238 923.489C77.0063 916.775 13.7554 902.853 -47.3318 881.983C-105.28 861.811 -154.817 836.427 -194.513 806.545C-235.623 775.545 -264.379 741.254 -280.066 704.279C-295.752 667.304 -297.487 629.955 -284.796 593.444C-272.648 558.15 -247.869 524.995 -211.2 494.884C-174.53 464.772 -127.766 439.298 -72.2623 419.09C-14.7817 398.15 49.6011 383.877 119.155 376.606V376.606ZM117.873 373.552C-169.8 403.691 -350.668 551.962 -285.915 704.813C-221.162 857.664 64.3534 957.1 351.996 926.891C639.639 896.681 820.433 748.527 755.805 595.726C691.177 442.925 405.536 343.438 117.893 373.648L117.873 373.552Z" stroke="#58479A" stroke-opacity="0.06" stroke-width="2.50278"/>
<path d="M167.316 338.587C236.711 336.528 306.068 342.786 373.919 357.229C435.975 370.117 496.094 390.963 552.8 419.254C606.479 446.494 651.074 478.883 685.106 515.101C720.381 552.721 742.912 593.155 752.003 635.306C761.221 676.522 756.17 719.721 737.681 757.783C719.681 795.656 689.61 830.064 648.335 860.064C607.06 890.065 556.615 914.131 498.415 931.627C438.193 949.75 372.238 959.947 302.448 961.979C233.053 964.034 163.697 957.776 95.8451 943.337C33.7888 930.448 -26.3299 909.603 -83.0362 881.312C-136.74 854.062 -181.31 821.683 -215.342 785.465C-250.642 747.835 -273.148 707.411 -282.239 665.26C-291.45 624.045 -286.381 580.849 -267.867 542.803C-249.867 504.93 -219.786 470.497 -178.421 440.562C-137.056 410.626 -86.7009 386.495 -28.5259 368.989C35.1891 350.318 101.03 340.097 167.316 338.587V338.587ZM166.642 335.103C-122.147 343.545 -325.665 491.413 -287.943 665.501C-250.221 839.588 14.4584 973.809 303.252 965.427C592.046 957.046 795.564 809.178 757.837 635.03C720.11 460.882 455.391 326.762 166.642 335.103Z" stroke="#58479A" stroke-opacity="0.06" stroke-width="2.50278"/>
<path d="M221.39 300.911C289.695 304.522 357.157 317.434 421.927 339.294C481.015 358.891 536.877 387.122 587.717 423.083C636.027 457.742 674.441 497.11 701.866 540.137C730.263 584.663 745.581 631.167 747.418 678.32C749.279 725.36 737.099 771.944 712.44 812.091C688.253 852.293 652.733 887.686 606.914 917.132C561.094 946.579 507.275 968.832 446.965 983.091C381.925 998.072 315.124 1003.65 248.591 999.65C180.286 996.039 112.824 983.127 48.0546 961.267C-11.042 941.666 -66.9116 913.431 -117.761 877.468C-166.071 842.809 -204.485 803.441 -231.885 760.424C-260.357 715.869 -275.7 669.355 -277.538 622.201C-279.399 575.161 -267.209 528.578 -242.534 488.44C-218.347 448.238 -182.827 412.845 -137.033 383.389C-91.2385 353.932 -37.3687 331.699 22.9156 317.43C87.9556 302.445 154.756 296.869 221.29 300.871L221.39 300.911ZM221.117 297.002C-64.9333 281.367 -290.792 426.82 -283.201 621.903C-275.61 816.985 -37.4976 987.829 248.683 1003.43C534.864 1019.03 760.718 873.661 753.127 678.578C745.536 483.495 507.424 312.652 221.218 297.042L221.117 297.002Z" stroke="#58479A" stroke-opacity="0.06" stroke-width="2.50278"/>
<path d="M281.049 264.001C347.529 273.808 412.049 293.921 472.307 323.621C527.63 350.619 578.067 386.673 621.56 430.315C663.288 472.67 694.462 519.413 714.171 569.187C734.275 618.601 741.593 672.369 735.444 725.494C729.175 777.775 709.432 827.564 678.168 869.935C647.478 912.164 606.369 948.019 556.237 976.623C506.104 1005.23 449.196 1025.02 387.28 1035.51C321.553 1046.39 254.57 1046.77 188.813 1036.63C122.333 1026.82 57.8128 1006.71 -2.44589 977.009C-57.7681 950.012 -108.205 913.957 -151.699 870.315C-193.426 827.961 -224.6 781.218 -244.309 731.443C-264.629 679.847 -271.825 627.255 -265.567 575.026C-259.285 522.748 -239.543 472.962 -208.292 430.584C-177.577 388.366 -136.493 352.501 -86.3601 323.896C-36.2275 295.292 20.6651 275.608 82.5818 265.118C148.308 254.235 215.292 253.858 281.049 264.001V264.001ZM281.559 259.732C2.05113 217.764 -245.385 358.593 -271.145 574.294C-296.905 789.994 -91.1646 998.83 188.343 1040.8C467.851 1082.77 715.287 941.936 741.087 726.135C766.887 510.333 561.066 301.7 281.559 259.732V259.732Z" stroke="#58479A" stroke-opacity="0.06" stroke-width="2.50278"/>
<path d="M346.17 228.482C410.051 245.022 470.448 272.854 524.538 310.678C575.143 345.825 618.878 390.005 653.58 441.034C686.76 489.531 709.78 544.32 721.251 602.093C732.631 659.749 730.738 719.309 715.718 776.228C700.697 833.148 672.946 885.924 634.58 930.53C596.099 975.221 549.022 1011.64 496.199 1037.59C440.83 1065.06 380.958 1082.12 319.554 1087.92C187.016 1100.45 54.5105 1065.72 -54.7142 989.828C-105.312 954.685 -149.039 910.508 -183.731 859.482C-216.911 810.985 -239.931 756.196 -251.402 698.423C-262.797 640.768 -260.919 581.206 -245.912 524.281C-230.904 467.356 -203.163 414.572 -164.806 369.956C-126.276 325.271 -79.147 288.869 -26.275 262.956C29.0941 235.489 88.9656 218.431 150.37 212.626C216.131 206.216 282.455 211.595 346.245 228.512L346.17 228.482ZM347.463 223.853C79.1196 153.506 -188.958 287.366 -251.144 522.869C-313.329 758.371 -145.942 1006.35 122.511 1076.71C390.965 1147.07 658.932 1013.2 721.118 777.698C783.303 542.195 615.841 294.184 347.387 223.823L347.463 223.853Z" stroke="#58479A" stroke-opacity="0.06" stroke-width="2.50278"/>
<path d="M416.362 194.918C520.749 236.597 607.433 313.298 661.73 412.026C716.027 510.754 734.599 625.44 714.299 736.656C693.999 847.873 636.076 948.782 550.341 1022.29C464.606 1095.8 356.331 1137.39 243.858 1140.01C115.099 1142 -9.01002 1092.78 -101.399 1003.08C-193.787 913.378 -246.959 790.473 -249.315 661.174C-251.671 531.875 -203.02 406.675 -113.975 312.882C-24.9294 219.089 97.285 164.315 226.01 160.506C291.172 158.994 355.914 170.698 416.362 194.918V194.918ZM418.372 189.872C327.867 153.802 228.634 145.543 133.221 166.137C37.8077 186.732 -49.4994 235.257 -117.66 305.575C-185.821 375.893 -231.774 464.847 -249.708 561.187C-267.642 657.526 -256.752 756.926 -218.415 846.815C-180.077 936.704 -116.015 1013.05 -34.3281 1066.19C47.3587 1119.33 143.001 1146.88 240.504 1145.36C338.006 1143.84 432.991 1113.32 513.445 1057.65C593.9 1001.98 656.211 923.668 692.499 832.615C716.593 772.159 728.616 707.577 727.879 642.557C727.143 577.537 713.663 513.353 688.208 453.669C662.753 393.985 625.821 339.969 579.523 294.707C533.225 249.445 478.466 213.822 418.372 189.872V189.872Z" stroke="#58479A" stroke-opacity="0.06" stroke-width="2.50278"/>
<g filter="url(#filter0_dd_0_1)">
<rect x="143.418" y="414.918" width="187.164" height="187.164" rx="93.5821" fill="url(#paint0_radial_0_1)" shape-rendering="crispEdges"/>
</g>
<rect x="123.851" y="395.351" width="226.299" height="226.299" rx="113.149" stroke="#8B78FF" stroke-opacity="0.25" stroke-width="1.70149"/>
<defs>
<filter id="filter0_dd_0_1" x="-60.7613" y="210.739" width="595.522" height="595.522" filterUnits="userSpaceOnUse" color-interpolation-filters="sRGB">
<feFlood flood-opacity="0" result="BackgroundImageFix"/>
<feColorMatrix in="SourceAlpha" type="matrix" values="0 0 0 0 0 0 0 0 0 0 0 0 0 0 0 0 0 0 127 0" result="hardAlpha"/>
<feOffset/>
<feGaussianBlur stdDeviation="102.09"/>
<feComposite in2="hardAlpha" operator="out"/>
<feColorMatrix type="matrix" values="0 0 0 0 0.392157 0 0 0 0 0.27451 0 0 0 0 0.705882 0 0 0 0.25 0"/>
<feBlend mode="normal" in2="BackgroundImageFix" result="effect1_dropShadow_0_1"/>
<feColorMatrix in="SourceAlpha" type="matrix" values="0 0 0 0 0 0 0 0 0 0 0 0 0 0 0 0 0 0 127 0" result="hardAlpha"/>
<feOffset/>
<feGaussianBlur stdDeviation="51.0448"/>
<feComposite in2="hardAlpha" operator="out"/>
<feColorMatrix type="matrix" values="0 0 0 0 0.545098 0 0 0 0 0.470588 0 0 0 0 1 0 0 0 0.5 0"/>
<feBlend mode="normal" in2="effect1_dropShadow_0_1" result="effect2_dropShadow_0_1"/>
<feBlend mode="normal" in="SourceGraphic" in2="effect2_dropShadow_0_1" result="shape"/>
</filter>
<radialGradient id="paint0_radial_0_1" cx="0" cy="0" r="1" gradientUnits="userSpaceOnUse" gradientTransform="translate(208.925 480.425) scale(172.049)">
<stop stop-color="#D2BEFF" stop-opacity="0.95"/>
<stop offset="0.3" stop-color="#8B78FF" stop-opacity="0.8"/>
<stop offset="0.65" stop-color="#6446B4" stop-opacity="0.55"/>
<stop offset="0.85" stop-color="#6446B4" stop-opacity="0"/>
</radialGradient>
</defs>
</svg>
